<?xml version="1.0" standalone="no"?>
<!DOCTYPE svg PUBLIC "-//W3C//DTD SVG 20010904//EN"
 "http://www.w3.org/TR/2001/REC-SVG-20010904/DTD/svg10.dtd">
<svg version="1.0" xmlns="http://www.w3.org/2000/svg"
 width="180.000000pt" height="180.000000pt" viewBox="0 0 1080.000000 1080.000000"
 preserveAspectRatio="xMidYMid meet">

<g transform="translate(0.000000,1080.000000) scale(0.100000,-0.100000)"
fill="#000000" stroke="none">
<path d="M0 5400 l0 -5400 5400 0 5400 0 0 5400 0 5400 -5400 0 -5400 0 0
-5400z m2054 898 c9 -14 21 -83 30 -178 9 -85 19 -170 22 -189 l5 -33 27 25
c57 52 124 66 197 42 38 -13 57 -15 84 -7 71 20 122 24 174 12 103 -24 188
-93 229 -185 l23 -53 63 -1 c75 0 133 -23 190 -76 42 -37 92 -127 92 -163 0
-16 9 -20 57 -24 95 -8 108 -42 78 -211 -28 -158 -100 -313 -199 -424 l-51
-57 3 -120 c3 -112 2 -123 -18 -149 l-21 -27 -584 0 -585 0 -16 24 c-12 20
-15 49 -13 144 l2 120 -42 49 c-133 150 -207 323 -218 508 -7 120 1 135 73
135 35 0 44 4 44 18 1 52 67 149 123 178 15 8 27 21 27 30 0 8 -25 123 -55
255 -61 264 -66 313 -36 329 30 15 66 12 83 -7 9 -10 42 -141 77 -297 33 -154
65 -284 71 -290 13 -13 13 52 0 149 -16 124 -41 374 -42 422 0 34 4 50 18 60
28 21 71 16 88 -9z m3764 -185 c1 -73 5 -133 8 -133 4 0 19 11 35 25 85 71
237 54 291 -33 22 -36 23 -45 23 -262 l0 -225 -102 -3 -103 -3 0 168 c0 136
-3 173 -16 191 -16 24 -53 29 -85 12 -40 -22 -49 -60 -49 -220 l0 -151 -102 3
-103 3 -3 370 c-1 203 0 376 3 383 3 9 30 12 102 10 l98 -3 3 -132z m-1916
-39 l3 -146 115 146 115 145 113 1 113 0 -122 -152 c-67 -84 -128 -160 -135
-168 -11 -13 10 -46 132 -215 79 -110 144 -201 144 -202 0 -2 -51 -3 -112 -3
l-113 1 -93 140 -94 141 -34 -33 -34 -33 0 -108 0 -108 -105 0 -105 0 0 370 0
370 105 0 104 0 3 -146z m1534 -59 c47 -23 124 -95 124 -116 0 -4 -44 -22 -99
-40 l-98 -32 -24 21 c-27 26 -75 29 -106 7 -27 -19 -47 -85 -38 -125 4 -16 15
-41 26 -55 24 -30 76 -34 119 -8 24 14 35 15 67 5 21 -6 64 -18 96 -27 31 -9
57 -21 57 -26 0 -6 -24 -34 -54 -64 -68 -68 -132 -90 -245 -83 -170 10 -281
125 -281 288 0 135 80 238 213 275 74 21 176 13 243 -20z m1246 7 c105 -51
161 -140 162 -257 l1 -70 -192 -3 c-205 -3 -218 -6 -172 -48 32 -29 110 -26
143 5 l25 24 86 -23 c47 -13 85 -27 85 -31 0 -5 -16 -27 -36 -49 -106 -117
-318 -134 -446 -35 -100 76 -133 226 -76 345 15 30 33 62 40 70 25 30 83 68
128 84 65 23 191 17 252 -12z m716 0 c64 -46 67 -62 67 -312 l0 -225 -100 0
-100 0 -5 178 c-5 164 -7 180 -25 193 -25 19 -62 10 -95 -22 -24 -24 -25 -29
-28 -190 l-3 -165 -102 3 -102 3 0 275 0 275 93 3 92 3 0 -31 c0 -35 6 -37 35
-10 57 54 210 66 273 22z m-2602 -9 c49 -26 110 -92 132 -142 9 -21 16 -66 16
-111 1 -63 -4 -84 -27 -132 -50 -102 -148 -158 -277 -158 -181 0 -304 114
-305 284 0 102 34 174 110 232 59 44 100 55 210 51 78 -2 109 -8 141 -24z
m3166 -978 c3 -3 -1 -49 -8 -102 -8 -53 -12 -99 -9 -101 3 -3 14 3 24 12 22
20 88 32 125 22 14 -3 33 -17 42 -31 64 -98 15 -282 -91 -342 -47 -27 -85 -29
-127 -7 -22 11 -33 13 -41 5 -13 -13 -97 -15 -97 -3 0 4 7 62 15 127 8 66 22
181 30 255 21 181 16 170 79 170 29 0 55 -2 58 -5z m-3940 -32 c49 -29 54 -45
28 -81 -28 -37 -34 -38 -90 -13 -46 21 -70 18 -96 -10 -30 -34 -12 -64 60 -94
36 -15 77 -40 92 -57 24 -24 28 -37 28 -83 -1 -68 -29 -121 -82 -159 -73 -51
-199 -46 -263 12 l-30 27 34 38 c36 39 53 40 88 10 9 -8 32 -16 52 -20 41 -6
77 22 77 60 0 35 -10 43 -84 73 -79 31 -106 65 -106 132 0 114 97 199 213 187
27 -2 63 -12 79 -22z m234 -5 c-3 -17 -9 -62 -13 -100 l-6 -70 34 21 c65 40
132 22 165 -42 15 -29 15 -42 -1 -179 l-18 -148 -62 0 -62 0 13 103 c23 182
17 215 -31 183 -37 -24 -55 -67 -65 -159 -17 -135 -11 -127 -80 -127 -33 0
-60 3 -60 8 0 4 11 95 24 202 14 107 28 228 32 268 l7 72 65 0 65 0 -7 -32z
m1562 10 c5 -7 24 -59 42 -116 17 -56 35 -100 40 -97 5 3 34 52 64 109 31 57
63 107 72 110 19 7 124 8 124 1 0 -3 -49 -79 -109 -168 -99 -149 -109 -167
-115 -222 -4 -33 -9 -79 -13 -102 l-5 -43 -65 0 -66 0 6 38 c25 155 25 155
-47 328 -36 88 -66 163 -66 167 0 13 127 8 138 -5z m1849 -20 c23 -15 54 -49
70 -75 25 -43 28 -57 28 -133 -1 -72 -5 -93 -27 -136 -35 -67 -107 -130 -171
-149 -33 -10 -94 -15 -175 -15 l-124 0 6 28 c3 15 8 47 11 72 34 289 46 389
51 413 l6 29 141 -4 c135 -3 144 -5 184 -30z m-2826 -135 c7 -7 2 -71 -13
-192 l-22 -182 -50 3 c-44 3 -51 6 -57 28 -4 14 -7 20 -8 13 -2 -20 -67 -53
-105 -53 -25 0 -45 8 -68 29 -29 25 -32 35 -36 95 -6 85 16 145 73 201 56 56
111 76 203 71 40 -2 78 -8 83 -13z m304 -42 c-9 -58 -12 -63 -38 -60 -39 3
-45 -1 -67 -32 -15 -21 -26 -60 -36 -127 -7 -53 -14 -100 -14 -104 0 -5 -27
-8 -61 -8 l-60 0 6 53 c4 28 14 113 23 187 l17 135 50 0 c48 0 50 -1 53 -29
l4 -28 15 22 c19 27 69 49 95 42 17 -4 19 -10 13 -51z m275 44 c57 -30 75 -86
45 -144 -16 -32 -85 -65 -157 -76 -50 -8 -57 -19 -38 -56 13 -23 77 -26 106
-4 27 20 58 18 79 -5 17 -19 17 -21 -1 -41 -70 -79 -229 -77 -287 3 -25 34
-34 123 -17 182 33 118 173 191 270 141z m928 -11 c46 -34 64 -80 59 -154 -4
-73 -22 -113 -68 -159 -44 -44 -94 -64 -152 -58 -91 8 -143 72 -141 173 2 91
55 175 132 211 40 18 136 11 170 -13z m760 17 c10 -6 11 -20 5 -57 -8 -46 -10
-49 -37 -46 -34 4 -71 -27 -85 -72 -8 -23 -31 -177 -31 -203 0 -2 -28 -3 -61
-3 l-62 0 6 38 c3 20 13 106 23 190 l18 153 50 -3 c45 -3 51 -6 54 -27 l4 -23
26 25 c23 21 38 29 72 36 3 0 11 -3 18 -8z m1446 -2 c6 -5 -27 -303 -40 -357
-4 -21 -10 -23 -52 -20 -40 3 -47 6 -50 25 -3 22 -4 22 -45 -8 -35 -25 -49
-30 -80 -26 -102 14 -135 133 -71 264 25 52 68 92 126 119 33 14 199 17 212 3z
m164 -1 c7 -7 12 -21 12 -31 0 -16 5 -15 35 12 37 33 82 41 91 17 3 -8 2 -34
-3 -58 -7 -34 -13 -43 -29 -41 -62 8 -96 -38 -108 -147 -4 -30 -9 -72 -12 -92
l-6 -38 -59 0 c-32 0 -59 3 -59 7 0 18 42 359 45 371 6 16 77 16 93 0z m481 3
c12 -8 10 -36 -8 -182 -12 -96 -24 -180 -26 -187 -8 -23 -88 -11 -100 14 l-11
22 -27 -24 c-37 -32 -87 -40 -126 -20 -85 44 -85 203 0 300 57 65 107 86 204
86 44 0 86 -4 94 -9z m-2613 -63 c-19 -183 -20 -228 -3 -228 53 0 82 48 96
160 18 139 13 130 81 130 42 0 60 -4 59 -12 0 -7 -10 -92 -22 -188 l-22 -175
-49 -3 c-41 -3 -48 0 -53 17 -7 26 -8 26 -44 0 -69 -49 -146 -32 -176 38 -13
32 -13 51 1 173 9 75 16 140 16 143 0 4 28 7 61 7 l62 0 -7 -62z"/>
<path d="M2226 5834 c-35 -35 -11 -90 46 -101 30 -6 58 -36 58 -64 0 -9 -9
-27 -19 -40 -17 -21 -28 -24 -90 -24 -71 0 -72 0 -112 -42 -46 -48 -63 -52
-119 -23 -46 24 -71 25 -109 6 -25 -13 -51 -52 -51 -76 0 -11 697 -11 1038 -1
l203 6 -24 44 c-41 78 -132 110 -224 77 -29 -10 -45 -11 -59 -3 -26 14 -31 24
-39 76 -23 155 -157 224 -304 156 -58 -27 -78 -26 -106 5 -22 24 -68 26 -89 4z"/>
<path d="M1706 5308 c20 -120 56 -224 100 -293 54 -82 108 -147 157 -185 l50
-40 446 0 446 0 52 45 c71 62 139 155 185 253 35 73 67 186 68 235 0 16 -43
17 -755 17 l-754 0 5 -32z"/>
<path d="M1960 4630 l0 -30 495 0 495 0 0 30 0 30 -495 0 -495 0 0 -30z"/>
<path d="M6488 5880 c-14 -11 -28 -29 -31 -40 -5 -19 -1 -20 79 -20 94 0 105
10 59 55 -30 30 -73 32 -107 5z"/>
<path d="M4579 5841 c-24 -24 -29 -38 -29 -76 0 -51 20 -99 45 -109 9 -3 29
-6 45 -6 16 0 36 3 45 6 25 10 45 58 45 109 0 59 -40 105 -90 105 -22 0 -41
-9 -61 -29z"/>
<path d="M7983 4775 c-28 -20 -59 -89 -68 -152 -7 -51 -6 -52 21 -59 31 -8 50
1 77 38 23 31 34 135 18 166 -14 26 -20 27 -48 7z"/>
<path d="M7456 4919 c-3 -8 -12 -83 -21 -168 -9 -85 -19 -161 -23 -169 -8 -23
113 -10 147 16 88 65 106 248 29 305 -33 25 -126 36 -132 16z"/>
<path d="M4658 4760 c-61 -48 -82 -190 -28 -190 36 0 75 69 85 153 7 53 6 57
-12 57 -11 0 -32 -9 -45 -20z"/>
<path d="M5291 4754 c-26 -34 -27 -44 -1 -44 34 0 82 29 78 48 -5 29 -53 27
-77 -4z"/>
<path d="M6221 4774 c-34 -24 -51 -68 -51 -132 0 -63 11 -82 47 -82 63 0 100
189 44 220 -13 6 -24 4 -40 -6z"/>
<path d="M8380 4772 c-43 -21 -70 -72 -70 -132 0 -90 40 -95 82 -10 26 54 46
160 31 160 -4 0 -24 -8 -43 -18z"/>
<path d="M9045 4780 c-27 -11 -61 -49 -74 -83 -26 -69 -3 -145 37 -121 27 16
60 94 68 157 6 58 4 62 -31 47z"/>
</g>
</svg>
